<svg xmlns="http://www.w3.org/2000/svg" viewBox="0 0 15.771 8.787"><path fill="currentColor" d="M7.898 2.884h-.024a1.509 1.509 0 0 0 0 3.017h.024a1.509 1.509 0 0 0 0-3.017z"/><path fill="currentColor" d="M15.191 3.322C13.672 1.995 11.114.065 7.891 0h-.02C4.654.066 2.093 1.995.571 3.322a1.515 1.515 0 0 0-.579 1 1.153 1.153 0 0 0 .385.869c1.241 1.289 3.95 3.581 7.492 3.6h.02c3.548-.017 6.249-2.309 7.49-3.6a1.15 1.15 0 0 0 .384-.869 1.518 1.518 0 0 0-.572-1zM7.886 7.794a3.294 3.294 0 0 1-3.148-3.4 3.293 3.293 0 0 1 3.148-3.4 3.29 3.29 0 0 1 3.148 3.4 3.291 3.291 0 0 1-3.148 3.4z"/></svg>