<svg xmlns="http://www.w3.org/2000/svg" viewBox="0 0 39.564 42.687"><path d="M12.609 36.81h-2.224v-2.507H5.842l1.117-4.464-5.3-1.914 5.3-4.006-6.956-3.131 6.956-2.676L3.204 8.88l10.773 2.373L15.366.001 22 8.88l8.732-7.3-1.277 10.811 10.112-1.135-7.141 8.542 7.141 1.611-6.436 4.946 3.928 2.8-4.632 2.082 1.709 4.245h-4.684l.571 2.263-1.779-.936-1.571 2.588-3.223 1.328-4.88.6-2.58-.6-3.38-2.98z" fill="#42afbe"/><path d="M12.586 38.626l-1.815-4.684-1.31-.729-.784-1.333v-1.739l1.406-1.391.688-5.96 1.815-5.511 2.686-3.374 5.255-1.07 4.548.55 4.094 3.894.688 5.511v5.96l1.987 1.391v1.738l-.608 1.333-1.379.729-1.646 4.091-3.137 3.375-4.548 1.129-5.255-1.129z" fill="#d7cbbf" stroke="#707070" stroke-linecap="round" stroke-linejoin="round" stroke-width=".3"/></svg>